<svg width="512" height="193" viewBox="0 0 512 193" fill="none" xmlns="http://www.w3.org/2000/svg">
<path d="M376.818 158.244L391.609 120.841H434.316L414.049 64.102L439.397 0L512 192.769H458.458L446.051 158.244H376.818Z" fill="#3D3D3D"/>
<path d="M331.14 192.77L408.863 0L357.335 0.001L304.168 124.572L266.361 0.001H226.754L186.159 124.572L157.53 67.808L131.623 147.625L157.927 192.77H208.637L245.32 81.056L280.296 192.77H331.14Z" fill="#5A0FC8"/>
<path d="M48.912 126.595H80.65C90.264 126.595 98.825 125.522 106.333 123.375L114.541 98.088L137.481 27.414C135.719 24.6248 133.716 21.9954 131.495 19.556C119.716 6.518 102.484 0 79.795 0H0V192.77H48.912V126.595ZM90.922 44.348C95.523 48.978 97.823 55.175 97.823 62.938C97.823 70.76 95.8 76.964 91.754 81.549C87.319 86.644 79.152 89.191 67.254 89.191H48.912V37.404H67.388C78.478 37.404 86.322 39.718 90.922 44.348Z" fill="#3D3D3D"/>
</svg>
